{
  "accessors": [
    {
      "bufferView": 2,
      "componentType": 5126,
      "count": 153,
      "max": [
        0.056205153465270996,
        0.39497625827789307,
        0.10351681709289551
      ],
      "min": [
        -0.0140458345413208,
        -0.5834401845932007,
        -0.24712741374969482
      ],
      "type": "VEC3"
    },
    {
      "bufferView": 2,
      "byteOffset": 1836,
      "componentType": 5126,
      "count": 153,
      "max": [
        1.0,
        1.0,
        1.0
      ],
      "min": [
        -6.801186100346968e-05,
        -1.0,
        -1.0
      ],
      "type": "VEC3"
    },
    {
      "bufferView": 3,
      "componentType": 5126,
      "count": 153,
      "max": [
        1.0,
        1.0,
        1.0,
        1.0
      ],
      "min": [
        -1.0,
        -1.623977004783228e-05,
        -1.0,
        1.0
      ],
      "type": "VEC4"
    },
    {
      "bufferView": 1,
      "componentType": 5126,
      "count": 153,
      "max": [
        0.9686251878738403,
        0.9922285079956055
      ],
      "min": [
        0.3328310251235962,
        0.03269808739423752
      ],
      "type": "VEC2"
    },
    {
      "bufferView": 0,
      "componentType": 5125,
      "count": 198,
      "type": "SCALAR"
    },
    {
      "bufferView": 2,
      "byteOffset": 3672,
      "componentType": 5126,
      "count": 504,
      "max": [
        0.15553414821624756,
        0.5,
        0.8999998569488525
      ],
      "min": [
        -0.1786966323852539,
        -0.5,
        -0.8999999165534973
      ],
      "type": "VEC3"
    },
    {
      "bufferView": 2,
      "byteOffset": 9720,
      "componentType": 5126,
      "count": 504,
      "max": [
        1.0,
        1.0,
        1.0
      ],
      "min": [
        -1.0,
        -1.0,
        -1.0
      ],
      "type": "VEC3"
    },
    {
      "bufferView": 3,
      "byteOffset": 2448,
      "componentType": 5126,
      "count": 504,
      "max": [
        1.0,
        1.0,
        0.9999969601631165,
        1.0
      ],
      "min": [
        -1.0,
        -0.9999987483024597,
        -0.9999969601631165,
        1.0
      ],
      "type": "VEC4"
    },
    {
      "bufferView": 1,
      "byteOffset": 1224,
      "componentType": 5126,
      "count": 504,
      "max": [
        0.9994609355926514,
        0.9974715113639832
      ],
      "min": [
        0.006271228194236755,
        0.006575345993041992
      ],
      "type": "VEC2"
    },
    {
      "bufferView": 0,
      "byteOffset": 792,
      "componentType": 5125,
      "count": 1728,
      "type": "SCALAR"
    },
    {
      "bufferView": 2,
      "byteOffset": 15768,
      "componentType": 5126,
      "count": 48,
      "max": [
        0.1786966323852539,
        0.30109721422195435,
        0.30971014499664307
      ],
      "min": [
        -0.13200581073760986,
        0.03888744115829468,
        0.04750025272369385
      ],
      "type": "VEC3"
    },
    {
      "bufferView": 2,
      "byteOffset": 16344,
      "componentType": 5126,
      "count": 48,
      "max": [
        0.9827265739440918,
        0.3147448003292084,
        0.3147445321083069
      ],
      "min": [
        -0.982726514339447,
        -0.3147448003292084,
        -0.31474462151527405
      ],
      "type": "VEC3"
    },
    {
      "bufferView": 1,
      "byteOffset": 5256,
      "componentType": 5126,
      "count": 48,
      "max": [
        0.9466953873634338,
        0.8210012316703796
      ],
      "min": [
        0.5033074617385864,
        0.7544621229171753
      ],
      "type": "VEC2"
    },
    {
      "bufferView": 0,
      "byteOffset": 7704,
      "componentType": 5125,
      "count": 204,
      "type": "SCALAR"
    },
    {
      "bufferView": 2,
      "byteOffset": 16920,
      "componentType": 5126,
      "count": 100,
      "max": [
        0.11945593357086182,
        0.09851342439651489,
        0.0
      ],
      "min": [
        0.0,
        -0.09851330518722534,
        -0.5929818153381348
      ],
      "type": "VEC3"
    },
    {
      "bufferView": 2,
      "byteOffset": 18120,
      "componentType": 5126,
      "count": 100,
      "max": [
        1.0,
        1.0,
        1.0
      ],
      "min": [
        -1.0,
        -1.0,
        -1.0
      ],
      "type": "VEC3"
    },
    {
      "bufferView": 3,
      "byteOffset": 10512,
      "componentType": 5126,
      "count": 100,
      "max": [
        1.0,
        1.0,
        0.07972855865955353,
        1.0
      ],
      "min": [
        -1.0,
        -1.0,
        -1.0,
        1.0
      ],
      "type": "VEC4"
    },
    {
      "bufferView": 1,
      "byteOffset": 5640,
      "componentType": 5126,
      "count": 100,
      "max": [
        0.2808186709880829,
        0.5446960926055908
      ],
      "min": [
        0.0029839379712939262,
        0.0037536323070526123
      ],
      "type": "VEC2"
    },
    {
      "bufferView": 0,
      "byteOffset": 8520,
      "componentType": 5125,
      "count": 216,
      "type": "SCALAR"
    },
    {
      "bufferView": 2,
      "byteOffset": 19320,
      "componentType": 5126,
      "count": 142,
      "max": [
        0.04423034191131592,
        0.03233274817466736,
        0.33880549669265747
      ],
      "min": [
        0.0,
        -0.032332807779312134,
        -0.028875410556793213
      ],
      "type": "VEC3"
    },
    {
      "bufferView": 2,
      "byteOffset": 21024,
      "componentType": 5126,
      "count": 142,
      "max": [
        1.0,
        0.9995715618133545,
        1.0
      ],
      "min": [
        -1.0,
        -0.9995715022087097,
        -0.9807859659194946
      ],
      "type": "VEC3"
    },
    {
      "bufferView": 3,
      "byteOffset": 12112,
      "componentType": 5126,
      "count": 142,
      "max": [
        0.9999815225601196,
        1.0,
        0.9999492764472961,
        1.0
      ],
      "min": [
        -0.9999977946281433,
        -0.9999985694885254,
        -0.5125911235809326,
        1.0
      ],
      "type": "VEC4"
    },
    {
      "bufferView": 1,
      "byteOffset": 6440,
      "componentType": 5126,
      "count": 142,
      "max": [
        0.4660744071006775,
        0.25666701793670654
      ],
      "min": [
        0.29915130138397217,
        0.0022592246532440186
      ],
      "type": "VEC2"
    },
    {
      "bufferView": 0,
      "byteOffset": 9384,
      "componentType": 5125,
      "count": 360,
      "type": "SCALAR"
    }
  ],
  "asset": {
    "extras": {
      "author": "Anaïs3Dcraft (https://sketchfab.com/anais.fernandez)",
      "license": "CC-BY-4.0 (http://creativecommons.org/licenses/by/4.0/)",
      "source": "https://sketchfab.com/3d-models/low-poly-spaceship-or-airplane-door-4f05a8206ba94623bc6f4d0e7c7bd8cd",
      "title": "Low Poly Spaceship Or Airplane Door"
    },
    "generator": "Sketchfab-16.75.0",
    "version": "2.0"
  },
  "bufferViews": [
    {
      "buffer": 0,
      "byteLength": 10824,
      "name": "floatBufferViews",
      "target": 34963
    },
    {
      "buffer": 0,
      "byteLength": 7576,
      "byteOffset": 10824,
      "byteStride": 8,
      "name": "floatBufferViews",
      "target": 34962
    },
    {
      "buffer": 0,
      "byteLength": 22728,
      "byteOffset": 18400,
      "byteStride": 12,
      "name": "floatBufferViews",
      "target": 34962
    },
    {
      "buffer": 0,
      "byteLength": 14384,
      "byteOffset": 41128,
      "byteStride": 16,
      "name": "floatBufferViews",
      "target": 34962
    }
  ],
  "buffers": [
    {
      "byteLength": 55512,
      "uri": "scene.bin"
    }
  ],
  "extensionsUsed": [
    "KHR_materials_specular"
  ],
  "images": [
    {
      "uri": "textures/Puerta_Rail_Cabina_baseColor.png"
    },
    {
      "uri": "textures/Puerta_Rail_Cabina_metallicRoughness.png"
    },
    {
      "uri": "textures/Puerta_Rail_Cabina_normal.png"
    },
    {
      "uri": "textures/Puerta_Rail_Cabina_specularf0.png"
    }
  ],
  "materials": [
    {
      "doubleSided": true,
      "extensions": {
        "KHR_materials_specular": {
          "specularColorFactor": [
            1.0,
            1.0,
            1.0
          ],
          "specularFactor": 1.0,
          "specularTexture": {
            "index": 3
          }
        }
      },
      "name": "Puerta_Rail_Cabina",
      "normalTexture": {
        "index": 2
      },
      "pbrMetallicRoughness": {
        "baseColorTexture": {
          "index": 0
        },
        "metallicFactor": 0.0,
        "metallicRoughnessTexture": {
          "index": 1
        }
      }
    },
    {
      "doubleSided": true,
      "name": "Cristal",
      "pbrMetallicRoughness": {
        "baseColorFactor": [
          0.8,
          0.8,
          0.8,
          1.0
        ],
        "metallicFactor": 0.0,
        "roughnessFactor": 0.8211145618000169
      }
    }
  ],
  "meshes": [
    {
      "name": "Mecanismo_Rail_Entrada_Puerta_Rail_Cabina_0",
      "primitives": [
        {
          "attributes": {
            "NORMAL": 1,
            "POSITION": 0,
            "TANGENT": 2,
            "TEXCOORD_0": 3
          },
          "indices": 4,
          "material": 0,
          "mode": 4
        }
      ]
    },
    {
      "name": "Puerta_Puerta_Rail_Cabina_0",
      "primitives": [
        {
          "attributes": {
            "NORMAL": 6,
            "POSITION": 5,
            "TANGENT": 7,
            "TEXCOORD_0": 8
          },
          "indices": 9,
          "material": 0,
          "mode": 4
        }
      ]
    },
    {
      "name": "Puerta_Cristal_0",
      "primitives": [
        {
          "attributes": {
            "NORMAL": 11,
            "POSITION": 10,
            "TEXCOORD_0": 12
          },
          "indices": 13,
          "material": 1,
          "mode": 4
        }
      ]
    },
    {
      "name": "Apertura_Exterior_Puerta_Rail_Cabina_0",
      "primitives": [
        {
          "attributes": {
            "NORMAL": 15,
            "POSITION": 14,
            "TANGENT": 16,
            "TEXCOORD_0": 17
          },
          "indices": 18,
          "material": 0,
          "mode": 4
        }
      ]
    },
    {
      "name": "Apertura_Interior_Puerta_Rail_Cabina_0",
      "primitives": [
        {
          "attributes": {
            "NORMAL": 20,
            "POSITION": 19,
            "TANGENT": 21,
            "TEXCOORD_0": 22
          },
          "indices": 23,
          "material": 0,
          "mode": 4
        }
      ]
    }
  ],
  "nodes": [
    {
      "children": [
        1
      ],
      "matrix": [
        2.220446049250313e-16,
        -1.6081226229577292e-16,
        1.0,
        0.0,
        -1.0,
        2.2204460492503126e-16,
        2.2204460492503136e-16,
        0.0,
        -2.220446049250313e-16,
        -1.0,
        -1.6081226229577292e-16,
        0.0,
        0.0,
        0.0,
        0.0,
        1.0
      ],
      "name": "Sketchfab_model"
    },
    {
      "children": [
        2
      ],
      "matrix": [
        1.0,
        0.0,
        0.0,
        0.0,
        0.0,
        -1.0,
        0.0,
        0.0,
        0.0,
        0.0,
        -1.0,
        0.0,
        0.0,
        0.0,
        0.0,
        1.0
      ],
      "name": "Puerta_Rail_Cabina.fbx"
    },
    {
      "children": [
        3,
        5
      ],
      "name": "RootNode"
    },
    {
      "children": [
        4
      ],
      "matrix": [
        1.0,
        0.0,
        0.0,
        0.0,
        0.0,
        1.0,
        0.0,
        0.0,
        0.0,
        0.0,
        1.0,
        0.0,
        1.1659269332885742,
        -0.9723265171051025,
        1.045041561126709,
        1.0
      ],
      "name": "Mecanismo_Rail_Entrada"
    },
    {
      "mesh": 0,
      "name": "Mecanismo_Rail_Entrada_Puerta_Rail_Cabina_0"
    },
    {
      "children": [
        6,
        7,
        8,
        10
      ],
      "matrix": [
        1.0,
        0.0,
        0.0,
        0.0,
        0.0,
        1.0,
        0.0,
        0.0,
        0.0,
        0.0,
        1.0,
        0.0,
        1.1200250387191772,
        -0.07104499638080597,
        1.02890145778656,
        1.0
      ],
      "name": "Puerta"
    },
    {
      "mesh": 1,
      "name": "Puerta_Puerta_Rail_Cabina_0"
    },
    {
      "mesh": 2,
      "name": "Puerta_Cristal_0"
    },
    {
      "children": [
        9
      ],
      "matrix": [
        1.0,
        0.0,
        0.0,
        0.0,
        0.0,
        1.0,
        0.0,
        0.0,
        0.0,
        0.0,
        1.0,
        0.0,
        0.11062026023864746,
        -0.21380262076854706,
        0.33493518829345703,
        1.0
      ],
      "name": "Apertura_Exterior"
    },
    {
      "mesh": 3,
      "name": "Apertura_Exterior_Puerta_Rail_Cabina_0"
    },
    {
      "children": [
        11
      ],
      "matrix": [
        1.0,
        0.0,
        0.0,
        0.0,
        0.0,
        1.0,
        0.0,
        0.0,
        0.0,
        0.0,
        1.0,
        0.0,
        -0.13226735591888428,
        2.9802322387695313e-08,
        -0.33902281522750854,
        1.0
      ],
      "name": "Apertura_Interior"
    },
    {
      "mesh": 4,
      "name": "Apertura_Interior_Puerta_Rail_Cabina_0"
    }
  ],
  "samplers": [
    {
      "magFilter": 9729,
      "minFilter": 9987,
      "wrapS": 10497,
      "wrapT": 10497
    }
  ],
  "scene": 0,
  "scenes": [
    {
      "name": "Sketchfab_Scene",
      "nodes": [
        0
      ]
    }
  ],
  "textures": [
    {
      "sampler": 0,
      "source": 0
    },
    {
      "sampler": 0,
      "source": 1
    },
    {
      "sampler": 0,
      "source": 2
    },
    {
      "sampler": 0,
      "source": 3
    }
  ]
}
