{
  "accessors": [
    {
      "bufferView": 2,
      "componentType": 5126,
      "count": 6779,
      "max": [
        1.0649652481079102,
        1.0799033641815186,
        1.0652832984924316
      ],
      "min": [
        -1.0649654865264893,
        -1.0831658840179443,
        -1.0555808544158936
      ],
      "type": "VEC3"
    },
    {
      "bufferView": 2,
      "byteOffset": 81348,
      "componentType": 5126,
      "count": 6779,
      "max": [
        0.9999873042106628,
        0.9987657070159912,
        1.0
      ],
      "min": [
        -0.9999873042106628,
        -1.0,
        -0.9999343156814575
      ],
      "type": "VEC3"
    },
    {
      "bufferView": 1,
      "componentType": 5126,
      "count": 6779,
      "max": [
        1.0000001192092896,
        1.0
      ],
      "min": [
        0.0,
        0.0
      ],
      "type": "VEC2"
    },
    {
      "bufferView": 0,
      "componentType": 5125,
      "count": 39024,
      "type": "SCALAR"
    },
    {
      "bufferView": 2,
      "byteOffset": 162696,
      "componentType": 5126,
      "count": 1682,
      "max": [
        0.9736143350601196,
        0.9978729486465454,
        -0.006957040634006262
      ],
      "min": [
        -0.9736143946647644,
        0.034428127110004425,
        -0.9820379018783569
      ],
      "type": "VEC3"
    },
    {
      "bufferView": 2,
      "byteOffset": 182880,
      "componentType": 5126,
      "count": 1682,
      "max": [
        0.9705486297607422,
        0.9976264834403992,
        -0.040834881365299225
      ],
      "min": [
        -0.9706908464431763,
        0.07664412260055542,
        -0.9970105290412903
      ],
      "type": "VEC3"
    },
    {
      "bufferView": 1,
      "byteOffset": 54232,
      "componentType": 5126,
      "count": 1682,
      "max": [
        1.0000001192092896,
        1.0
      ],
      "min": [
        0.0,
        0.5046424269676208
      ],
      "type": "VEC2"
    },
    {
      "bufferView": 0,
      "byteOffset": 156096,
      "componentType": 5125,
      "count": 9312,
      "type": "SCALAR"
    },
    {
      "bufferView": 2,
      "byteOffset": 203064,
      "componentType": 5126,
      "count": 21832,
      "max": [
        4.831542491912842,
        1.431886911392212,
        1.9244332313537598
      ],
      "min": [
        -4.82244873046875,
        -6.184469223022461,
        -1.9658769369125366
      ],
      "type": "VEC3"
    },
    {
      "bufferView": 2,
      "byteOffset": 465048,
      "componentType": 5126,
      "count": 21832,
      "max": [
        1.0,
        0.9998338222503662,
        1.0
      ],
      "min": [
        -1.0,
        -0.9999999403953552,
        -1.0
      ],
      "type": "VEC3"
    },
    {
      "bufferView": 1,
      "byteOffset": 67688,
      "componentType": 5126,
      "count": 21832,
      "max": [
        1.0000001192092896,
        1.0
      ],
      "min": [
        0.0,
        0.0
      ],
      "type": "VEC2"
    },
    {
      "bufferView": 0,
      "byteOffset": 193344,
      "componentType": 5125,
      "count": 116400,
      "type": "SCALAR"
    },
    {
      "bufferView": 2,
      "byteOffset": 727032,
      "componentType": 5126,
      "count": 11406,
      "max": [
        5.760547637939453,
        0.08389577269554138,
        1.837110996246338
      ],
      "min": [
        -5.751453399658203,
        -7.518996715545654,
        -0.6134198307991028
      ],
      "type": "VEC3"
    },
    {
      "bufferView": 2,
      "byteOffset": 863904,
      "componentType": 5126,
      "count": 11406,
      "max": [
        0.9999450445175171,
        0.9998106360435486,
        0.9999558925628662
      ],
      "min": [
        -0.9999449849128723,
        -1.0,
        -0.9992565512657166
      ],
      "type": "VEC3"
    },
    {
      "bufferView": 1,
      "byteOffset": 242344,
      "componentType": 5126,
      "count": 11406,
      "max": [
        0.65625,
        0.3579705059528351
      ],
      "min": [
        0.3437499701976776,
        0.006541730836033821
      ],
      "type": "VEC2"
    },
    {
      "bufferView": 0,
      "byteOffset": 658944,
      "componentType": 5125,
      "count": 66960,
      "type": "SCALAR"
    },
    {
      "bufferView": 2,
      "byteOffset": 1000776,
      "componentType": 5126,
      "count": 11793,
      "max": [
        3.116264820098877,
        0.7425103783607483,
        0.7222223281860352
      ],
      "min": [
        -3.116269111633301,
        -0.7382717132568359,
        -1.0445301532745361
      ],
      "type": "VEC3"
    },
    {
      "bufferView": 2,
      "byteOffset": 1142292,
      "componentType": 5126,
      "count": 11793,
      "max": [
        0.9999887943267822,
        0.9999979138374329,
        1.0
      ],
      "min": [
        -0.9999887347221375,
        -1.0,
        -1.0
      ],
      "type": "VEC3"
    },
    {
      "bufferView": 1,
      "byteOffset": 333592,
      "componentType": 5126,
      "count": 11793,
      "max": [
        0.875,
        1.0000001192092896
      ],
      "min": [
        0.125,
        0.0
      ],
      "type": "VEC2"
    },
    {
      "bufferView": 0,
      "byteOffset": 926784,
      "componentType": 5125,
      "count": 69120,
      "type": "SCALAR"
    },
    {
      "bufferView": 2,
      "byteOffset": 1283808,
      "componentType": 5126,
      "count": 7785,
      "max": [
        -1.5994172096252441,
        2.3273561000823975,
        0.47692930698394775
      ],
      "min": [
        -2.902782678604126,
        -3.8020336627960205,
        -2.8932406902313232
      ],
      "type": "VEC3"
    },
    {
      "bufferView": 2,
      "byteOffset": 1377228,
      "componentType": 5126,
      "count": 7785,
      "max": [
        0.9999967813491821,
        0.9953303933143616,
        0.9999997019767761
      ],
      "min": [
        -0.9999992251396179,
        -0.9579720497131348,
        -0.9999947547912598
      ],
      "type": "VEC3"
    },
    {
      "bufferView": 1,
      "byteOffset": 427936,
      "componentType": 5126,
      "count": 7785,
      "max": [
        1.0,
        1.0
      ],
      "min": [
        0.0,
        0.0
      ],
      "type": "VEC2"
    },
    {
      "bufferView": 0,
      "byteOffset": 1203264,
      "componentType": 5125,
      "count": 40224,
      "type": "SCALAR"
    },
    {
      "bufferView": 2,
      "byteOffset": 1470648,
      "componentType": 5126,
      "count": 7785,
      "max": [
        2.902782917022705,
        2.3273561000823975,
        0.47692930698394775
      ],
      "min": [
        1.5994172096252441,
        -3.8020336627960205,
        -2.8932406902313232
      ],
      "type": "VEC3"
    },
    {
      "bufferView": 2,
      "byteOffset": 1564068,
      "componentType": 5126,
      "count": 7785,
      "max": [
        0.9999992847442627,
        0.9953295588493347,
        0.9999997615814209
      ],
      "min": [
        -0.9999968409538269,
        -0.9579721689224243,
        -0.9999947547912598
      ],
      "type": "VEC3"
    },
    {
      "bufferView": 1,
      "byteOffset": 490216,
      "componentType": 5126,
      "count": 7785,
      "max": [
        1.0,
        1.0
      ],
      "min": [
        0.0,
        0.0
      ],
      "type": "VEC2"
    },
    {
      "bufferView": 0,
      "byteOffset": 1364160,
      "componentType": 5125,
      "count": 40224,
      "type": "SCALAR"
    },
    {
      "bufferView": 2,
      "byteOffset": 1657488,
      "componentType": 5126,
      "count": 1445,
      "max": [
        0.9847049713134766,
        0.061944007873535156,
        0.9847052097320557
      ],
      "min": [
        -0.9847054481506348,
        -0.21724416315555573,
        -0.9847055077552795
      ],
      "type": "VEC3"
    },
    {
      "bufferView": 2,
      "byteOffset": 1674828,
      "componentType": 5126,
      "count": 1445,
      "max": [
        1.0,
        1.5569396509818034e-06,
        1.0
      ],
      "min": [
        -1.0,
        -1.0,
        -1.0
      ],
      "type": "VEC3"
    },
    {
      "bufferView": 1,
      "byteOffset": 552496,
      "componentType": 5126,
      "count": 1445,
      "max": [
        0.65625,
        0.6884398460388184
      ],
      "min": [
        0.3437499701976776,
        -7.450580596923828e-08
      ],
      "type": "VEC2"
    },
    {
      "bufferView": 0,
      "byteOffset": 1525056,
      "componentType": 5125,
      "count": 7680,
      "type": "SCALAR"
    },
    {
      "bufferView": 2,
      "byteOffset": 1692168,
      "componentType": 5126,
      "count": 5023,
      "max": [
        0.49981701374053955,
        0.12516887485980988,
        2.193765878677368
      ],
      "min": [
        -0.49981704354286194,
        -0.8744651675224304,
        1.867476224899292
      ],
      "type": "VEC3"
    },
    {
      "bufferView": 2,
      "byteOffset": 1752444,
      "componentType": 5126,
      "count": 5023,
      "max": [
        1.0,
        1.0,
        1.0
      ],
      "min": [
        -1.0,
        -1.0,
        -1.0
      ],
      "type": "VEC3"
    },
    {
      "bufferView": 1,
      "byteOffset": 564056,
      "componentType": 5126,
      "count": 5023,
      "max": [
        0.875,
        1.0
      ],
      "min": [
        0.125,
        -1.1175871339474952e-09
      ],
      "type": "VEC2"
    },
    {
      "bufferView": 0,
      "byteOffset": 1555776,
      "componentType": 5125,
      "count": 29184,
      "type": "SCALAR"
    },
    {
      "bufferView": 2,
      "byteOffset": 1812720,
      "componentType": 5126,
      "count": 50,
      "max": [
        0.19923143088817596,
        -0.11711721122264862,
        2.193765878677368
      ],
      "min": [
        0.050050098448991776,
        -0.6326132416725159,
        2.19376540184021
      ],
      "type": "VEC3"
    },
    {
      "bufferView": 2,
      "byteOffset": 1813320,
      "componentType": 5126,
      "count": 50,
      "max": [
        1.7063738368960912e-06,
        1.9210467598895775e-06,
        1.0
      ],
      "min": [
        -2.3549159777758177e-06,
        -4.4691200855595525e-06,
        1.0
      ],
      "type": "VEC3"
    },
    {
      "bufferView": 1,
      "byteOffset": 604240,
      "componentType": 5126,
      "count": 50,
      "max": [
        0.5514949560165405,
        0.19069024920463562
      ],
      "min": [
        0.5108091235160828,
        0.05919134244322777
      ],
      "type": "VEC2"
    },
    {
      "bufferView": 0,
      "byteOffset": 1672512,
      "componentType": 5125,
      "count": 192,
      "type": "SCALAR"
    },
    {
      "bufferView": 2,
      "byteOffset": 1813920,
      "componentType": 5126,
      "count": 1445,
      "max": [
        -0.059338055551052094,
        -0.19594928622245789,
        2.205179452896118
      ],
      "min": [
        -0.4380672574043274,
        -0.5746785998344421,
        2.1514899730682373
      ],
      "type": "VEC3"
    },
    {
      "bufferView": 2,
      "byteOffset": 1831260,
      "componentType": 5126,
      "count": 1445,
      "max": [
        1.0,
        1.0,
        1.0
      ],
      "min": [
        -1.0,
        -1.0,
        -1.5598499885527417e-05
      ],
      "type": "VEC3"
    },
    {
      "bufferView": 1,
      "byteOffset": 604640,
      "componentType": 5126,
      "count": 1445,
      "max": [
        0.65625,
        0.6884398460388184
      ],
      "min": [
        0.3437499701976776,
        -7.450580596923828e-08
      ],
      "type": "VEC2"
    },
    {
      "bufferView": 0,
      "byteOffset": 1673280,
      "componentType": 5125,
      "count": 7680,
      "type": "SCALAR"
    },
    {
      "bufferView": 2,
      "byteOffset": 1848600,
      "componentType": 5126,
      "count": 2046,
      "max": [
        1.7859859466552734,
        2.0619869232177734,
        5.063509464263916
      ],
      "min": [
        -1.4938799142837524,
        -0.14730605483055115,
        -1.1912434101104736
      ],
      "type": "VEC3"
    },
    {
      "bufferView": 2,
      "byteOffset": 1873152,
      "componentType": 5126,
      "count": 2046,
      "max": [
        0.9994372725486755,
        0.9987587928771973,
        0.9999654293060303
      ],
      "min": [
        -0.9993675947189331,
        -0.9993723630905151,
        -0.9997124671936035
      ],
      "type": "VEC3"
    },
    {
      "bufferView": 1,
      "byteOffset": 616200,
      "componentType": 5126,
      "count": 2046,
      "max": [
        1.0000001192092896,
        1.0
      ],
      "min": [
        0.0,
        0.0
      ],
      "type": "VEC2"
    },
    {
      "bufferView": 0,
      "byteOffset": 1704000,
      "componentType": 5125,
      "count": 11520,
      "type": "SCALAR"
    }
  ],
  "asset": {
    "extras": {
      "author": "Bruce (https://sketchfab.com/brucemevans)",
      "license": "CC-BY-4.0 (http://creativecommons.org/licenses/by/4.0/)",
      "source": "https://sketchfab.com/3d-models/space-man-hi-res-467014be6bbb4ed384fca1e1ecf58e54",
      "title": "Space Man Hi Res"
    },
    "generator": "Sketchfab-12.66.0",
    "version": "2.0"
  },
  "bufferViews": [
    {
      "buffer": 0,
      "byteLength": 1750080,
      "name": "floatBufferViews",
      "target": 34963
    },
    {
      "buffer": 0,
      "byteLength": 632568,
      "byteOffset": 1750080,
      "byteStride": 8,
      "name": "floatBufferViews",
      "target": 34962
    },
    {
      "buffer": 0,
      "byteLength": 1897704,
      "byteOffset": 2382648,
      "byteStride": 12,
      "name": "floatBufferViews",
      "target": 34962
    }
  ],
  "buffers": [
    {
      "byteLength": 4280352,
      "uri": "scene.bin"
    }
  ],
  "extensionsRequired": [
    "KHR_materials_pbrSpecularGlossiness"
  ],
  "extensionsUsed": [
    "KHR_materials_pbrSpecularGlossiness"
  ],
  "materials": [
    {
      "doubleSided": true,
      "extensions": {
        "KHR_materials_pbrSpecularGlossiness": {
          "diffuseFactor": [
            0.6281055094861525,
            0.6281055094861525,
            0.6281055094861525,
            1.0
          ],
          "glossinessFactor": 0.4,
          "specularFactor": [
            0.28220274390243905,
            0.28220274390243905,
            0.28220274390243905
          ]
        }
      },
      "name": "helmet"
    },
    {
      "doubleSided": true,
      "extensions": {
        "KHR_materials_pbrSpecularGlossiness": {
          "diffuseFactor": [
            0.012577112286737278,
            0.031083364514586206,
            0.11106511231140416,
            1.0
          ],
          "glossinessFactor": 0.75,
          "specularFactor": [
            0.1948593611897959,
            0.1948593611897959,
            0.1948593611897959
          ]
        }
      },
      "name": "visor"
    },
    {
      "doubleSided": true,
      "extensions": {
        "KHR_materials_pbrSpecularGlossiness": {
          "diffuseFactor": [
            0.30026978286695144,
            0.30026978286695144,
            0.30026978286695144,
            1.0
          ],
          "glossinessFactor": 0.13586128048780488,
          "specularFactor": [
            0.15415396341463414,
            0.15415396341463414,
            0.15415396341463414
          ]
        }
      },
      "name": "rubber"
    },
    {
      "doubleSided": true,
      "extensions": {
        "KHR_materials_pbrSpecularGlossiness": {
          "diffuseFactor": [
            0.5,
            0.5,
            0.5,
            1.0
          ],
          "glossinessFactor": 0.4,
          "specularFactor": [
            0.0,
            0.0,
            0.0
          ]
        }
      },
      "name": "lambert1"
    },
    {
      "doubleSided": true,
      "extensions": {
        "KHR_materials_pbrSpecularGlossiness": {
          "diffuseFactor": [
            0.4788319434779161,
            0.023468966563254354,
            0.023468966563254354,
            1.0
          ],
          "glossinessFactor": 0.4,
          "specularFactor": [
            0.0,
            0.0,
            0.0
          ]
        }
      },
      "name": "Buttons"
    },
    {
      "doubleSided": true,
      "extensions": {
        "KHR_materials_pbrSpecularGlossiness": {
          "diffuseFactor": [
            0.13788420204419904,
            0.13788420204419904,
            0.13788420204419904,
            1.0
          ],
          "glossinessFactor": 0.6297637195121951,
          "specularFactor": [
            0.0,
            0.0,
            0.0
          ]
        }
      },
      "name": "metal"
    }
  ],
  "meshes": [
    {
      "name": "pSphere1_helmet_0",
      "primitives": [
        {
          "attributes": {
            "NORMAL": 1,
            "POSITION": 0,
            "TEXCOORD_0": 2
          },
          "indices": 3,
          "material": 0,
          "mode": 4
        }
      ]
    },
    {
      "name": "pSphere1_visor_0",
      "primitives": [
        {
          "attributes": {
            "NORMAL": 5,
            "POSITION": 4,
            "TEXCOORD_0": 6
          },
          "indices": 7,
          "material": 1,
          "mode": 4
        }
      ]
    },
    {
      "name": "pasted__pCylinder6_helmet_0",
      "primitives": [
        {
          "attributes": {
            "NORMAL": 9,
            "POSITION": 8,
            "TEXCOORD_0": 10
          },
          "indices": 11,
          "material": 0,
          "mode": 4
        }
      ]
    },
    {
      "name": "pasted__pCylinder6_rubber_0",
      "primitives": [
        {
          "attributes": {
            "NORMAL": 13,
            "POSITION": 12,
            "TEXCOORD_0": 14
          },
          "indices": 15,
          "material": 2,
          "mode": 4
        }
      ]
    },
    {
      "name": "pCube1_helmet_0",
      "primitives": [
        {
          "attributes": {
            "NORMAL": 17,
            "POSITION": 16,
            "TEXCOORD_0": 18
          },
          "indices": 19,
          "material": 0,
          "mode": 4
        }
      ]
    },
    {
      "name": "side3_helmet_0",
      "primitives": [
        {
          "attributes": {
            "NORMAL": 21,
            "POSITION": 20,
            "TEXCOORD_0": 22
          },
          "indices": 23,
          "material": 0,
          "mode": 4
        }
      ]
    },
    {
      "name": "side5_helmet_0",
      "primitives": [
        {
          "attributes": {
            "NORMAL": 25,
            "POSITION": 24,
            "TEXCOORD_0": 26
          },
          "indices": 27,
          "material": 0,
          "mode": 4
        }
      ]
    },
    {
      "name": "pCylinder10_lambert1_0",
      "primitives": [
        {
          "attributes": {
            "NORMAL": 29,
            "POSITION": 28,
            "TEXCOORD_0": 30
          },
          "indices": 31,
          "material": 3,
          "mode": 4
        }
      ]
    },
    {
      "name": "polySurface4_helmet_0",
      "primitives": [
        {
          "attributes": {
            "NORMAL": 33,
            "POSITION": 32,
            "TEXCOORD_0": 34
          },
          "indices": 35,
          "material": 0,
          "mode": 4
        }
      ]
    },
    {
      "name": "polySurface4_Buttons_0",
      "primitives": [
        {
          "attributes": {
            "NORMAL": 37,
            "POSITION": 36,
            "TEXCOORD_0": 38
          },
          "indices": 39,
          "material": 4,
          "mode": 4
        }
      ]
    },
    {
      "name": "polySurface5_metal_0",
      "primitives": [
        {
          "attributes": {
            "NORMAL": 41,
            "POSITION": 40,
            "TEXCOORD_0": 42
          },
          "indices": 43,
          "material": 5,
          "mode": 4
        }
      ]
    },
    {
      "name": "pTorus1_rubber_0",
      "primitives": [
        {
          "attributes": {
            "NORMAL": 45,
            "POSITION": 44,
            "TEXCOORD_0": 46
          },
          "indices": 47,
          "material": 2,
          "mode": 4
        }
      ]
    }
  ],
  "nodes": [
    {
      "children": [
        1
      ],
      "matrix": [
        1.0,
        0.0,
        0.0,
        0.0,
        0.0,
        2.220446049250313e-16,
        -1.0,
        0.0,
        0.0,
        1.0,
        2.220446049250313e-16,
        0.0,
        0.0,
        0.0,
        0.0,
        1.0
      ],
      "name": "Sketchfab_model"
    },
    {
      "children": [
        2
      ],
      "matrix": [
        1.0,
        0.0,
        0.0,
        0.0,
        0.0,
        0.0,
        1.0,
        0.0,
        0.0,
        -1.0,
        0.0,
        0.0,
        0.0,
        0.0,
        0.0,
        1.0
      ],
      "name": "9c1b1052b2234ef89234db3e9af299ca.fbx"
    },
    {
      "children": [
        3,
        6,
        9,
        11,
        14,
        16,
        18,
        24
      ],
      "name": "RootNode"
    },
    {
      "children": [
        4,
        5
      ],
      "matrix": [
        2.1815261840820313,
        0.0,
        0.0,
        0.0,
        0.0,
        -1.4725580590231913,
        1.6095431819747366,
        0.0,
        0.0,
        -1.6095431819747366,
        -1.4725580590231913,
        0.0,
        0.021537287160754204,
        2.9197819232940674,
        0.05429696664214134,
        1.0
      ],
      "name": "pSphere1"
    },
    {
      "mesh": 0,
      "name": "pSphere1_helmet_0"
    },
    {
      "mesh": 1,
      "name": "pSphere1_visor_0"
    },
    {
      "children": [
        7,
        8
      ],
      "matrix": [
        1.0,
        0.0,
        0.0,
        0.0,
        0.0,
        1.0,
        0.0,
        0.0,
        0.0,
        0.0,
        1.0,
        0.0,
        -0.004546888638287783,
        0.0,
        0.0,
        1.0
      ],
      "name": "pasted__pCylinder6"
    },
    {
      "mesh": 2,
      "name": "pasted__pCylinder6_helmet_0"
    },
    {
      "mesh": 3,
      "name": "pasted__pCylinder6_rubber_0"
    },
    {
      "children": [
        10
      ],
      "matrix": [
        1.0,
        0.0,
        0.0,
        0.0,
        0.0,
        8.60610282045069,
        -0.4873075476069941,
        0.0,
        0.0,
        0.1163955766631791,
        2.05560596286277,
        0.0,
        0.0,
        0.9868751168251038,
        -3.6676597595214844,
        1.0
      ],
      "name": "pCube1"
    },
    {
      "mesh": 4,
      "name": "pCube1_helmet_0"
    },
    {
      "children": [
        12
      ],
      "name": "side1"
    },
    {
      "children": [
        13
      ],
      "matrix": [
        1.0,
        0.0,
        0.0,
        0.0,
        0.0,
        1.0,
        0.0,
        0.0,
        0.0,
        0.0,
        1.0,
        0.0,
        0.0,
        -0.240575909614563,
        0.15456506609916687,
        1.0
      ],
      "name": "side3"
    },
    {
      "mesh": 5,
      "name": "side3_helmet_0"
    },
    {
      "children": [
        15
      ],
      "matrix": [
        1.0,
        0.0,
        0.0,
        0.0,
        0.0,
        1.0,
        0.0,
        0.0,
        0.0,
        0.0,
        1.0,
        0.0,
        0.0,
        -0.240575909614563,
        0.15456506609916687,
        1.0
      ],
      "name": "side5"
    },
    {
      "mesh": 6,
      "name": "side5_helmet_0"
    },
    {
      "children": [
        17
      ],
      "matrix": [
        0.0,
        0.0,
        0.19230590760707855,
        0.0,
        0.19230590760707855,
        8.540097855872666e-17,
        0.0,
        0.0,
        -8.540097855872666e-17,
        0.19230590760707855,
        0.0,
        0.0,
        -2.640984535217285,
        -2.1032321453094482,
        -2.760531187057495,
        1.0
      ],
      "name": "pCylinder10"
    },
    {
      "mesh": 7,
      "name": "pCylinder10_lambert1_0"
    },
    {
      "children": [
        19,
        22
      ],
      "matrix": [
        1.0,
        0.0,
        0.0,
        0.0,
        0.0,
        0.9813878327004173,
        -0.19203625133702681,
        0.0,
        0.0,
        0.19203625133702681,
        0.9813878327004173,
        0.0,
        0.0,
        -0.39818182587623596,
        -0.12181837856769562,
        1.0
      ],
      "name": "pCube3"
    },
    {
      "children": [
        20,
        21
      ],
      "name": "polySurface4"
    },
    {
      "mesh": 8,
      "name": "polySurface4_helmet_0"
    },
    {
      "mesh": 9,
      "name": "polySurface4_Buttons_0"
    },
    {
      "children": [
        23
      ],
      "name": "polySurface5"
    },
    {
      "mesh": 10,
      "name": "polySurface5_metal_0"
    },
    {
      "children": [
        25
      ],
      "matrix": [
        1.0,
        0.0,
        0.0,
        0.0,
        0.0,
        -1.0,
        1.2246467991473532e-16,
        0.0,
        0.0,
        -1.2246467991473532e-16,
        -1.0,
        0.0,
        -1.9244599342346191,
        -0.38775888085365295,
        2.198248863220215,
        1.0
      ],
      "name": "pTorus1"
    },
    {
      "mesh": 11,
      "name": "pTorus1_rubber_0"
    }
  ],
  "scene": 0,
  "scenes": [
    {
      "name": "Sketchfab_Scene",
      "nodes": [
        0
      ]
    }
  ]
}
